HIERARCHY
ROOT Hips
{
	OFFSET 0.00 0.00 0.00
	CHANNELS 6 Xposition Yposition Zposition Xrotation Yrotation Zrotation
	JOINT RightUpLeg
	{
		OFFSET -3.76699 0.00000 0.00000
		CHANNELS 3 Xrotation Yrotation Zrotation
		JOINT RightLeg
		{
			OFFSET 0.00000 -18.01768 0.00000
			CHANNELS 3 Xrotation Yrotation Zrotation
			JOINT RightFoot
			{
				OFFSET 0.00000 -16.88108 0.00000
				CHANNELS 3 Xrotation Yrotation Zrotation
				JOINT RightToeBase
				{
					OFFSET 0.00000 -1.49359 5.57418
					CHANNELS 3 Xrotation Yrotation Zrotation
					End Site
					{
						OFFSET 0.00000 0.00000 2.95275
					}
				}
			}
		}
	}
	JOINT LeftUpLeg
	{
		OFFSET 3.76699 0.00000 0.00000
		CHANNELS 3 Xrotation Yrotation Zrotation
		JOINT LeftLeg
		{
			OFFSET 0.00000 -18.01768 0.00000
			CHANNELS 3 Xrotation Yrotation Zrotation
			JOINT LeftFoot
			{
				OFFSET 0.00000 -16.88108 0.00000
				CHANNELS 3 Xrotation Yrotation Zrotation
				JOINT LeftToeBase
				{
					OFFSET 0.00000 -1.49359 5.57418
					CHANNELS 3 Xrotation Yrotation Zrotation
					End Site
					{
						OFFSET 0.00000 0.00000 2.95275
					}
				}
			}
		}
	}
	JOINT Spine
	{
		OFFSET 0.00000 7.77970 0.00000
		CHANNELS 3 Xrotation Yrotation Zrotation
		JOINT RightShoulder
		{
			OFFSET 0.00000 10.94176 0.00000
			CHANNELS 3 Xrotation Yrotation Zrotation
			JOINT RightArm
			{
				OFFSET -7.70894 0.00000 0.00000
				CHANNELS 3 Xrotation Yrotation Zrotation
				JOINT RightForeArm
				{
					OFFSET -11.52135 0.00000 0.00000
					CHANNELS 3 Yrotation Zrotation Xrotation
					JOINT RightHand
					{
						OFFSET -10.17590 0.00000 0.00000
						CHANNELS 3 Xrotation Yrotation Zrotation
						End Site
						{
							OFFSET -3.93700 0.00000 0.00000
						}
						JOINT RightHandThumb1
						{
							OFFSET 0.00000 0.00000 0.00000
							CHANNELS 3 Xrotation Zrotation Yrotation
							End Site
							{
								OFFSET 0.00000 0.00000 3.93700
							}
						}
					}
				}
			}
		}
		JOINT LeftShoulder
		{
			OFFSET 0.00000 10.94176 0.00000
			CHANNELS 3 Xrotation Yrotation Zrotation
			JOINT LeftArm
			{
				OFFSET 7.70894 0.00000 0.00000
				CHANNELS 3 Xrotation Yrotation Zrotation
				JOINT LeftForeArm
				{
					OFFSET 11.52135 0.00000 0.00000
					CHANNELS 3 Yrotation Zrotation Xrotation
					JOINT LeftHand
					{
						OFFSET 10.17590 0.00000 0.00000
						CHANNELS 3 Xrotation Yrotation Zrotation
						End Site
						{
							OFFSET 3.93700 0.00000 0.00000
						}
						JOINT LeftHandThumb1
						{
							OFFSET 0.00000 0.00000 0.00000
							CHANNELS 3 Xrotation Zrotation Yrotation
							End Site
							{
								OFFSET 0.00000 0.00000 3.93700
							}
						}
					}
				}
			}
		}
		JOINT Head
		{
			OFFSET 0.00000 16.64604 0.00000
			CHANNELS 3 Xrotation Yrotation Zrotation
			End Site
			{
				OFFSET 0.00000 4.52755 0.00000
			}
		}
	}
}
MOTION
Frames: 11
Frame Time: 0.008333
 2.7516 37.1188 3.9414 -3.4919 -2.5297 2.1442 10.9984 -6.1900 -4.0247 -5.0284 0.0000 0.0000 -7.7609 -17.4521 10.7911 14.2368 0.0000 -0.0000 9.4949 6.3597 0.6934 -2.1569 0.0000 0.0000 -4.6945 15.0788 -13.0760 9.0346 -0.0000 0.0000 9.5272 -5.4427 -2.4546 10.3558 -11.7724 -25.9796 -25.6605 -5.8345 28.8621 19.4404 0.0000 -5.5507 -0.1916 1.7747 6.1637 32.8623 0.0000 -24.3270 28.5008 35.8168 14.3721 -56.8068 -1.5546 -32.2924 -7.4279 0.0000 34.8062 2.1090 18.7062 -6.5503 33.1476 -0.0000 26.2537 8.1936 15.8926 -0.5130
 2.7525 37.1183 3.9414 -3.4983 -2.5258 2.1506 11.0029 -6.1904 -4.0284 -5.0336 -0.0000 -0.0000 -7.7747 -17.4850 10.7957 14.2853 -0.0000 0.0000 9.4987 6.3655 0.6863 -2.1496 -0.0000 -0.0000 -4.6858 15.0676 -13.1271 9.0548 0.0000 0.0000 9.5751 -5.4573 -2.4726 10.4644 -11.8050 -25.9112 -25.2925 -5.6901 28.9042 19.4213 0.0000 -5.6652 -0.2085 1.9216 6.1942 32.8623 0.0000 -24.3270 28.5906 35.8433 14.3270 -56.3317 -1.7702 -32.2980 -7.4495 0.0000 34.8678 2.0702 18.5962 -6.4669 33.1476 -0.0000 26.2537 8.1849 15.9253 -0.4973
 2.7528 37.1183 3.9401 -3.4951 -2.5181 2.1495 11.0005 -6.1834 -4.0286 -5.0338 -0.0000 -0.0000 -7.7675 -17.5030 10.8296 14.2840 0.0000 -0.0000 9.4897 6.3632 0.6893 -2.1443 -0.0000 0.0000 -4.6999 15.0544 -13.0855 9.0820 0.0000 0.0000 9.6163 -5.4654 -2.4762 10.6165 -11.8604 -25.8337 -24.9660 -5.5725 28.9575 19.4383 0.0000 -5.6366 -0.2077 1.9244 6.1624 32.8623 0.0000 -24.3270 28.7010 35.8574 14.2600 -55.8878 -1.9836 -32.2946 -7.4469 0.0000 34.8942 2.0556 18.5139 -6.4491 33.1476 -0.0000 26.2537 8.1731 15.9351 -0.4953
 2.7526 37.1187 3.9387 -3.4889 -2.5073 2.1476 10.9921 -6.1947 -4.0221 -5.0312 -0.0000 -0.0000 -7.7684 -17.4962 10.8097 14.2808 -0.0000 -0.0000 9.4786 6.3737 0.6942 -2.1439 0.0000 -0.0000 -4.6934 15.0496 -13.1221 8.9979 -0.0000 0.0000 9.6552 -5.4885 -2.4835 10.7985 -11.9305 -25.7275 -24.6304 -5.3981 29.0026 19.4218 0.0000 -5.7305 -0.2198 2.0586 6.0945 32.8623 0.0000 -24.3270 28.8222 35.8824 14.1806 -55.3823 -2.2279 -32.2806 -7.4390 0.0000 34.8589 2.0598 18.4756 -6.4749 33.1476 -0.0000 26.2537 8.1600 15.9671 -0.4783
 2.7529 37.1191 3.9374 -3.4822 -2.4947 2.1457 10.9809 -6.2080 -4.0243 -5.0172 0.0000 -0.0000 -7.7673 -17.4641 10.8245 14.2607 -0.0000 0.0000 9.4680 6.3640 0.6969 -2.1443 0.0000 0.0000 -4.6905 15.0377 -13.0769 8.9881 0.0000 -0.0000 9.6992 -5.4814 -2.4943 10.9647 -12.0229 -25.6096 -24.2722 -5.2251 29.0415 19.4003 0.0000 -5.7529 -0.2274 2.1022 6.1756 32.8623 0.0000 -24.3270 29.0274 35.9622 14.0464 -54.9531 -2.5629 -32.3126 -7.3862 0.0000 34.7893 1.9840 18.3509 -6.2789 33.1476 -0.0000 26.2537 8.1379 15.9756 -0.4446
 2.7521 37.1191 3.9354 -3.4750 -2.4858 2.1368 10.9723 -6.2017 -4.0136 -5.0143 0.0000 0.0000 -7.7556 -17.4735 10.8240 14.2715 -0.0000 0.0000 9.4591 6.3647 0.7072 -2.1543 0.0000 0.0000 -4.6808 15.0351 -13.0701 8.9512 0.0000 0.0000 9.7444 -5.4779 -2.4979 11.1430 -12.1130 -25.4982 -23.9604 -5.0671 29.1063 19.3121 0.0000 -5.8212 -0.2397 2.2160 6.1742 32.8623 0.0000 -24.3270 29.1201 35.9779 13.9815 -54.5097 -2.7945 -32.3086 -7.3120 0.0000 34.9035 2.0179 18.2115 -6.4323 33.1476 -0.0000 26.2537 8.1295 15.9904 -0.4213
 2.7516 37.1192 3.9343 -3.4688 -2.4810 2.1305 10.9657 -6.2021 -4.0064 -5.0171 0.0000 0.0000 -7.7630 -17.4719 10.8471 14.2977 0.0000 -0.0000 9.4509 6.3848 0.7166 -2.1598 0.0000 0.0000 -4.6768 15.0209 -13.1272 8.9959 -0.0000 0.0000 9.7858 -5.4629 -2.5099 11.3245 -12.2134 -25.3800 -23.7071 -4.9382 29.1739 19.2343 0.0000 -5.6935 -0.2407 2.1920 6.2692 32.8623 0.0000 -24.3270 29.1277 35.9252 13.9670 -53.8587 -3.0583 -32.2326 -7.2721 0.0000 34.8431 2.1017 18.1474 -6.7200 33.1476 -0.0000 26.2537 8.1401 16.0188 -0.3697
 2.7507 37.1197 3.9329 -3.4598 -2.4751 2.1306 10.9543 -6.2133 -3.9997 -5.0203 -0.0000 -0.0000 -7.7489 -17.4924 10.8425 14.2976 0.0000 0.0000 9.4400 6.3965 0.7192 -2.1601 -0.0000 0.0000 -4.6795 14.9859 -13.1018 9.0996 -0.0000 0.0000 9.8225 -5.4461 -2.5315 11.4953 -12.2929 -25.2538 -23.3874 -4.8370 29.2417 19.2024 0.0000 -5.6520 -0.2457 2.2246 6.3032 32.8623 0.0000 -24.3270 29.2088 35.9297 13.9141 -53.4005 -3.2756 -32.2185 -7.2021 0.0000 35.1038 2.1519 18.1255 -6.8869 33.1476 -0.0000 26.2537 8.1727 16.0175 -0.3356
 2.7499 37.1201 3.9312 -3.4462 -2.4652 2.1263 10.9401 -6.2106 -3.9910 -5.0183 -0.0000 0.0000 -7.7459 -17.5129 10.8478 14.2406 0.0000 -0.0000 9.4251 6.4042 0.7259 -2.1683 -0.0000 -0.0000 -4.6754 14.9856 -13.0994 9.0102 0.0000 0.0000 9.8513 -5.4466 -2.5390 11.6693 -12.3643 -25.1471 -23.0738 -4.7194 29.3126 19.0880 0.0000 -5.4711 -0.2645 2.3117 6.5285 32.8623 0.0000 -24.3270 29.3373 35.9644 13.8231 -52.9875 -3.4817 -32.2208 -7.1600 0.0000 35.2030 2.1722 17.9069 -7.0327 33.1476 -0.0000 26.2537 8.2033 16.0286 -0.3012
 2.7495 37.1202 3.9307 -3.4361 -2.4546 2.1241 10.9295 -6.2359 -3.9881 -5.0169 0.0000 -0.0000 -7.7459 -17.4699 10.8484 14.2987 -0.0000 0.0000 9.4158 6.3983 0.7314 -2.1780 0.0000 0.0000 -4.6655 14.9787 -13.1049 9.0393 -0.0000 -0.0000 9.8860 -5.4612 -2.5494 11.8602 -12.4476 -25.0126 -22.8354 -4.6205 29.3910 19.0336 0.0000 -5.3560 -0.2653 2.2905 6.6085 32.8623 0.0000 -24.3270 29.4030 35.9825 13.7528 -52.4672 -3.6954 -32.2076 -7.1439 0.0000 35.4031 2.2431 17.9901 -7.2277 33.1476 -0.0000 26.2537 8.2438 16.0381 -0.2733
 2.7494 37.1207 3.9297 -3.4261 -2.4462 2.1244 10.9155 -6.2358 -3.9887 -5.0092 -0.0000 -0.0000 -7.7465 -17.4696 10.8604 14.2747 0.0000 0.0000 9.4052 6.4100 0.7308 -2.1849 0.0000 0.0000 -4.6628 14.9598 -13.0820 9.0426 -0.0000 0.0000 9.9210 -5.4770 -2.5641 11.9821 -12.4720 -24.8970 -22.3523 -4.4487 29.4589 18.9600 0.0000 -5.3673 -0.2557 2.1780 6.6981 32.8623 0.0000 -24.3270 29.4556 35.9844 13.6958 -51.8801 -3.8795 -32.1799 -7.2028 0.0000 35.4955 2.3275 17.9983 -7.4938 33.1476 -0.0000 26.2537 8.2996 16.0561 -0.2514
